<svg xmlns="http://www.w3.org/2000/svg" width="24" height="24" fill="none" viewBox="0 0 24 24" class="web3icons">
    <path fill="#30A1F5" d="M14.96 4.8H9.01c-.792 0-1.188 0-1.546.11a2.5 2.5 0 0 0-.866.473c-.287.242-.5.575-.93 1.241L3.78 9.566c-.283.44-.425.66-.463.892a1.14 1.14 0 0 0 .065.606c.087.219.272.404.642.774l7.026 7.026c.328.328.492.491.68.553a.83.83 0 0 0 .512 0c.189-.062.353-.226.68-.553l7.027-7.026c.37-.37.555-.555.642-.774a1.14 1.14 0 0 0 .065-.606c-.039-.232-.18-.452-.463-.892L18.3 6.624c-.428-.666-.643-1-.93-1.24a2.5 2.5 0 0 0-.865-.473c-.358-.11-.754-.11-1.546-.11"/>
    <path fill="#fff" d="M13.834 7.12a.3.3 0 0 1 .563 0l.668 1.805c.04.109.125.194.234.234l1.805.668a.3.3 0 0 1 0 .563l-1.805.668a.4.4 0 0 0-.234.234l-.668 1.805a.3.3 0 0 1-.563 0l-.668-1.805a.4.4 0 0 0-.234-.234l-1.805-.668a.3.3 0 0 1 0-.563l1.805-.668a.4.4 0 0 0 .234-.234z"/>
</svg>
