<svg width="24" height="24" viewBox="0 0 24 24" fill="none" xmlns="http://www.w3.org/2000/svg">
<path fill-rule="evenodd" clip-rule="evenodd" d="M14.9595 4.80005H9.01124C8.21903 4.80005 7.82293 4.80005 7.46464 4.91082C7.14749 5.00887 6.85322 5.16952 6.59924 5.38328C6.31231 5.62477 6.09812 5.95797 5.66973 6.62435L5.66973 6.62435L3.77887 9.56569C3.49583 10.006 3.35431 10.2261 3.3159 10.4578C3.28202 10.6621 3.30455 10.8718 3.38106 11.0643C3.46781 11.2825 3.65286 11.4676 4.02297 11.8377L11.049 18.8637C11.3768 19.1915 11.5406 19.3553 11.7296 19.4167C11.8958 19.4708 12.0749 19.4708 12.2411 19.4167C12.43 19.3553 12.5939 19.1915 12.9217 18.8637L19.9477 11.8377C20.3178 11.4676 20.5029 11.2825 20.5896 11.0643C20.6662 10.8718 20.6887 10.6621 20.6548 10.4578C20.6164 10.2261 20.4749 10.006 20.1918 9.56569L18.301 6.62435C17.8726 5.95797 17.6584 5.62477 17.3715 5.38328C17.1175 5.16952 16.8232 5.00887 16.5061 4.91082C16.1478 4.80005 15.7517 4.80005 14.9595 4.80005ZM13.8342 7.12046C13.9308 6.85927 14.3003 6.85927 14.3969 7.12046L15.0648 8.9253C15.1049 9.03369 15.1903 9.11915 15.2987 9.15926L17.1036 9.82711C17.3647 9.92376 17.3647 10.2932 17.1036 10.3898L15.2987 11.0577C15.1903 11.0978 15.1049 11.1832 15.0648 11.2916L14.3969 13.0965C14.3003 13.3577 13.9308 13.3577 13.8342 13.0965L13.1663 11.2916C13.1262 11.1832 13.0408 11.0978 12.9324 11.0577L11.1275 10.3898C10.8664 10.2932 10.8664 9.92376 11.1275 9.82711L12.9324 9.15926C13.0408 9.11915 13.1262 9.03369 13.1663 8.9253L13.8342 7.12046Z" fill="white"/>
</svg>
